<svg width="100%" viewBox="0 0 680 520" role="img" xmlns="http://www.w3.org/2000/svg">
<title>SMA 근력보조슈트 착용 전후 척추기립근 활성도 비교</title>
<desc>스토프 리프트 동작에서 슈트 미착용(좌)과 착용(우)의 척추기립근 활성도 비교 해부학 그림</desc>
<defs>
<marker id="arrow" viewBox="0 0 10 10" refX="8" refY="5" markerWidth="6" markerHeight="6" orient="auto-start-reverse">
<path d="M2 1L8 5L2 9" fill="none" stroke="context-stroke" stroke-width="1.5" stroke-linecap="round" stroke-linejoin="round"/>
</marker>
</defs>
<rect x="30" y="50" width="290" height="440" rx="8" fill="#FFF5F5" stroke="#F09595" stroke-width="0.5"/>
<rect x="360" y="50" width="290" height="440" rx="8" fill="#F0F7FF" stroke="#85B7EB" stroke-width="0.5"/>
<text x="175" y="82" text-anchor="middle" font-family="sans-serif" font-size="15" font-weight="500" fill="#A32D2D">슈트 미착용</text>
<text x="175" y="98" text-anchor="middle" font-family="sans-serif" font-size="12" fill="#E24B4A">척추기립근 활성도 높음</text>
<text x="505" y="82" text-anchor="middle" font-family="sans-serif" font-size="15" font-weight="500" fill="#185FA5">SMA 슈트 착용 (200N)</text>
<text x="505" y="98" text-anchor="middle" font-family="sans-serif" font-size="12" fill="#378ADD">척추기립근 활성도 감소</text>
<ellipse cx="175" cy="290" rx="28" ry="14" fill="#D3D1C7" stroke="#888780" stroke-width="0.5"/>
<line x1="175" y1="276" x2="155" y2="185" stroke="#888780" stroke-width="8" stroke-linecap="round"/>
<rect x="157" y="188" width="10" height="85" rx="4" fill="#E24B4A" opacity="0.85" transform="rotate(-12, 162, 230)"/>
<rect x="170" y="188" width="10" height="85" rx="4" fill="#E24B4A" opacity="0.85" transform="rotate(-12, 175, 230)"/>
<circle cx="148" cy="168" r="18" fill="#FAC775" stroke="#BA7517" stroke-width="0.5"/>
<line x1="155" y1="215" x2="120" y2="270" stroke="#888780" stroke-width="7" stroke-linecap="round"/>
<line x1="155" y1="215" x2="190" y2="260" stroke="#888780" stroke-width="7" stroke-linecap="round"/>
<line x1="120" y1="270" x2="118" y2="320" stroke="#888780" stroke-width="6" stroke-linecap="round"/>
<line x1="190" y1="260" x2="192" y2="310" stroke="#888780" stroke-width="6" stroke-linecap="round"/>
<rect x="108" y="320" width="90" height="40" rx="4" fill="#EF9F27" stroke="#BA7517" stroke-width="1"/>
<text x="153" y="345" text-anchor="middle" font-family="sans-serif" font-size="12" fill="#633806">20 kg</text>
<line x1="163" y1="304" x2="148" y2="390" stroke="#888780" stroke-width="9" stroke-linecap="round"/>
<line x1="187" y1="304" x2="202" y2="390" stroke="#888780" stroke-width="9" stroke-linecap="round"/>
<line x1="148" y1="390" x2="128" y2="400" stroke="#888780" stroke-width="7" stroke-linecap="round"/>
<line x1="202" y1="390" x2="222" y2="400" stroke="#888780" stroke-width="7" stroke-linecap="round"/>
<rect x="60" y="195" width="72" height="28" rx="14" fill="#E24B4A"/>
<text x="96" y="214" text-anchor="middle" font-family="sans-serif" font-size="13" font-weight="500" fill="#FCEBEB">ES: 90%</text>
<line x1="132" y1="209" x2="157" y2="218" stroke="#E24B4A" stroke-width="1" stroke-dasharray="3,2" marker-end="url(#arrow)"/>
<rect x="205" y="240" width="90" height="24" rx="4" fill="#F7C1C1"/>
<text x="250" y="256" text-anchor="middle" font-family="sans-serif" font-size="12" fill="#791F1F">요추토크 142 Nm</text>
<ellipse cx="505" cy="290" rx="28" ry="14" fill="#D3D1C7" stroke="#888780" stroke-width="0.5"/>
<line x1="505" y1="276" x2="485" y2="185" stroke="#888780" stroke-width="8" stroke-linecap="round"/>
<rect x="487" y="188" width="10" height="85" rx="4" fill="#5DCAA5" opacity="0.75" transform="rotate(-12, 492, 230)"/>
<rect x="500" y="188" width="10" height="85" rx="4" fill="#5DCAA5" opacity="0.75" transform="rotate(-12, 505, 230)"/>
<circle cx="478" cy="168" r="18" fill="#FAC775" stroke="#BA7517" stroke-width="0.5"/>
<line x1="485" y1="215" x2="450" y2="270" stroke="#888780" stroke-width="7" stroke-linecap="round"/>
<line x1="485" y1="215" x2="520" y2="260" stroke="#888780" stroke-width="7" stroke-linecap="round"/>
<line x1="450" y1="270" x2="448" y2="320" stroke="#888780" stroke-width="6" stroke-linecap="round"/>
<line x1="520" y1="260" x2="522" y2="310" stroke="#888780" stroke-width="6" stroke-linecap="round"/>
<rect x="438" y="320" width="90" height="40" rx="4" fill="#EF9F27" stroke="#BA7517" stroke-width="1"/>
<text x="483" y="345" text-anchor="middle" font-family="sans-serif" font-size="12" fill="#633806">20 kg</text>
<line x1="493" y1="304" x2="478" y2="390" stroke="#888780" stroke-width="9" stroke-linecap="round"/>
<line x1="517" y1="304" x2="532" y2="390" stroke="#888780" stroke-width="9" stroke-linecap="round"/>
<line x1="478" y1="390" x2="458" y2="400" stroke="#888780" stroke-width="7" stroke-linecap="round"/>
<line x1="532" y1="390" x2="552" y2="400" stroke="#888780" stroke-width="7" stroke-linecap="round"/>
<path d="M487 195 Q470 230 475 280" fill="none" stroke="#378ADD" stroke-width="5" stroke-linecap="round" opacity="0.7"/>
<path d="M503 195 Q486 230 491 280" fill="none" stroke="#378ADD" stroke-width="5" stroke-linecap="round" opacity="0.7"/>
<line x1="465" y1="230" x2="483" y2="230" stroke="#185FA5" stroke-width="2" marker-end="url(#arrow)"/>
<text x="455" y="226" text-anchor="middle" font-family="sans-serif" font-size="12" fill="#185FA5">23 Nm</text>
<rect x="545" y="195" width="72" height="28" rx="14" fill="#378ADD"/>
<text x="581" y="214" text-anchor="middle" font-family="sans-serif" font-size="13" font-weight="500" fill="#E6F1FB">ES: 74%</text>
<line x1="545" y1="209" x2="517" y2="218" stroke="#378ADD" stroke-width="1" stroke-dasharray="3,2" marker-end="url(#arrow)"/>
<rect x="525" y="240" width="90" height="24" rx="4" fill="#B5D4F4"/>
<text x="570" y="256" text-anchor="middle" font-family="sans-serif" font-size="12" fill="#0C447C">요추토크 119 Nm</text>
<line x1="340" y1="60" x2="340" y2="480" stroke="#D3D1C7" stroke-width="1" stroke-dasharray="4,3"/>
<rect x="30" y="460" width="620" height="22" rx="4" fill="#EAF3DE" stroke="#97C459" stroke-width="0.5"/>
<text x="340" y="475" text-anchor="middle" font-family="sans-serif" font-size="12" font-weight="500" fill="#3B6D11">SMA 200N 보조 → 척추기립근 활성도 16.2% 감소 | 요추 토크 16.2% 경감</text>
<rect x="80" y="415" width="14" height="14" rx="3" fill="#E24B4A"/>
<text x="100" y="426" font-family="sans-serif" font-size="12" fill="#A32D2D">높은 활성도</text>
<rect x="200" y="415" width="14" height="14" rx="3" fill="#5DCAA5"/>
<text x="220" y="426" font-family="sans-serif" font-size="12" fill="#0F6E56">낮은 활성도</text>
<rect x="410" y="415" width="14" height="14" rx="3" fill="#378ADD" opacity="0.7"/>
<text x="430" y="426" font-family="sans-serif" font-size="12" fill="#185FA5">SMA 슈트</text>
</svg>
